<svg width="0" height="0" class="hidden">
  <symbol xmlns="http://www.w3.org/2000/svg" id="location" viewBox="0 0 24 24">
    <path d="M20.46,9.63A8.5,8.5,0,0,0,7.3,3.36,8.56,8.56,0,0,0,3.54,9.63,8.46,8.46,0,0,0,6,16.46l5.3,5.31a1,1,0,0,0,1.42,0L18,16.46A8.46,8.46,0,0,0,20.46,9.63ZM16.6,15.05,12,19.65l-4.6-4.6A6.49,6.49,0,0,1,5.53,9.83,6.57,6.57,0,0,1,8.42,5a6.47,6.47,0,0,1,7.16,0,6.57,6.57,0,0,1,2.89,4.81A6.49,6.49,0,0,1,16.6,15.05ZM12,6a4.5,4.5,0,1,0,4.5,4.5A4.51,4.51,0,0,0,12,6Zm0,7a2.5,2.5,0,1,1,2.5-2.5A2.5,2.5,0,0,1,12,13Z"></path>
  </symbol>
  <symbol xmlns="http://www.w3.org/2000/svg" id="email" viewBox="0 0 36 36">
    <path d="M18 0C8.065 0 0 8.065 0 18s8.065 18 18 18 18-8.065 18-18S27.935 0 18 0zm0 .969C27.41.969 35.031 8.59 35.031 18c0 9.41-7.621 17.031-17.031 17.031C8.59 35.031.969 27.41.969 18 .969 8.59 8.59.969 18 .969zM17.594 13l-9.094.031a.5.5 0 0 0-.281.094.5.5 0 0 0-.063.063.5.5 0 0 0-.156.343v11.375a.5.5 0 0 0 .5.5h13.781c.73.535 1.623.875 2.594.875 2.436 0 4.406-1.996 4.406-4.437 0-1.582-.845-2.966-2.093-3.75v-4.5a.5.5 0 0 0-.5-.594h-9.094zm-7.344 1.031h14.688l-7.344 4.594-7.344-4.594zm15.938.375v3.219a4.376 4.376 0 0 0-.97-.188 1.71 1.71 0 0 0-.343-.03c-.61 0-1.19.118-1.719.343a4.697 4.697 0 0 0-.781.406c-.235.16-.425.362-.625.563-.4.401-.745.876-.969 1.406a4.375 4.375 0 0 0 .5 4.281H9v-9.968l8.344 5.187a.5.5 0 0 0 .531 0l8.313-5.219zm-1.344 4h.031c.203 0 .4.029.594.063l.156.031c.175.04.337.091.5.156.058.023.13.036.188.063a3.434 3.434 0 0 1 1.968 3.125c0 1.902-1.512 3.437-3.406 3.437a3.418 3.418 0 0 1-2.188-.812 3.45 3.45 0 0 1-.437-.438c-.031-.037-.064-.086-.094-.125-.124-.162-.25-.32-.343-.5-.02-.037-.014-.086-.032-.125a3.428 3.428 0 0 1-.218-.562c-.014-.05-.02-.075-.032-.125a3.54 3.54 0 0 1-.093-.75c0-.238.017-.464.062-.688.046-.224.132-.45.219-.656a3.355 3.355 0 0 1 3.125-2.094zm1.531 1.907a.5.5 0 0 0-.344.156l-1.656 1.656-.688-.656a.5.5 0 0 0-.375-.157.5.5 0 0 0-.312.875l.969.938a.5.5 0 0 0 .781.063l2-2a.5.5 0 0 0-.375-.875z" color="#000" font-family="Sans" font-weight="400" overflow="visible"></path>
  </symbol>
  <symbol xmlns="http://www.w3.org/2000/svg" id="phone" viewBox="0 0 32 32">
    <path d="M27.308,20.649l-2.2-2.2a3.521,3.521,0,0,0-4.938-.021,2.152,2.152,0,0,1-2.729.267A15.026,15.026,0,0,1,13.3,14.562a2.181,2.181,0,0,1,.284-2.739A3.521,3.521,0,0,0,13.553,6.9l-2.2-2.2a3.514,3.514,0,0,0-4.961,0l-.633.634c-3.3,3.3-3.053,10.238,3.813,17.1,4.14,4.141,8.307,5.875,11.686,5.875a7.5,7.5,0,0,0,5.418-2.061l.634-.634A3.513,3.513,0,0,0,27.308,20.649ZM25.894,24.2l-.634.634c-2.6,2.6-8.339,2.125-14.276-3.813S4.571,9.34,7.171,6.74L7.8,6.107a1.511,1.511,0,0,1,2.133,0l2.2,2.2a1.511,1.511,0,0,1,.021,2.11,4.181,4.181,0,0,0-.531,5.239,17.01,17.01,0,0,0,4.713,4.706,4.179,4.179,0,0,0,5.231-.517,1.512,1.512,0,0,1,2.118.013l2.2,2.2A1.51,1.51,0,0,1,25.894,24.2Z"></path>
  </symbol>
</svg>